<?xml version="1.0" encoding="UTF-8"?>
<svg viewBox="0 0 483.51 975.68" xmlns="http://www.w3.org/2000/svg">
 <g fill-rule="evenodd">
  <path d="m182.11 430.06c-48.331 2.956-43.158 6.5032-43.158 6.5032-14.773 2.2903-44.151 15.658-55.893 28.557-26.777 5.8666-30.415 30.286-50.039 46.167 0 0-13.639 5.8272-24.133 23.416-10.494 17.588-10.205 29.969-6.7053 53.773 8.4914 57.754 66.412 60.277 79.596 37.43 7.7568-13.442 5.0145-61.328 16.081-68.022 10.103 35.468 19.5 35.024 23.456 59.517 99.037 69.693 137.42 65.745 220.68 10.627 14.318-46.634 24.124-54.203 29.896-77.364 0 0 20.319 81.101 51.653 84.057s49.41-13.642 57.633-45.15c8.2223-31.508-6.4882-77.644-24.744-80.883-6.3491-10.923-14.778-20.181-28.969-24.831-18.105-21.671-34.21-27.343-50.844-37.246-0.032684 0.05896-4.0764-2.3446-44.34-21.874-16.478-7.9926-101.84 2.3648-150.17 5.3209z"/>
  <path d="m150.07 422.81c-4.6763 6.4649-11.293 5.4307-17.14 15.173 10.275 36.159 68.403 117.63 115.05 111.52l-9.0165-25.605c-13.703-22.337-68.922-32.386-76.07-66.74-9.9694-7.6548-9.4834-22.28-12.825-34.353z"/>
  <path d="m349.38 423.26c9.3322 5.774 11.619 14.248 20.22 19.548-38.521 66.631-101 111.64-108.09 109.02l4.2896-26.795c5.5089-14.158 45.46-34.394 65.262-44.978 12.357-16.849 16.911-36.299 18.322-56.797z"/>
  <path d="m143.59 364.56c-20.984-27.97-25.699-55.939-15.424-83.908 17.577-22.045 36.991-33.069 56.145-45.656 0 0 15.887-28.689 34.551-38.252 18.664-9.5631 27.052-6.275 48.741 3.7019 15.424 7.0952 37.636 37.018 37.636 37.018l62.314 49.975c8.1497 13.723 9.8843 26.162 9.8716 38.252 1.2436 21.943-7.0191 37.549-15.424 53.06 3.7046 19.446-7.4972 49.445-12.34 69.101-3.8541 15.646-15.741 24.539-15.424 35.784-23.691 5.5779-20.518 21.901-29.615 33.317-17.731-0.9588-29.306 46.939-61.08 64.165l-17.892-40.72c-15.552-1.9128-26.689-16.094-35.168-29.615 0 0-19.743-22.057-26.53-35.168-6.7867-13.111-0.61699-17.275-0.61699-17.275s-7.8664-2.7764-11.106-14.807c-3.2391-12.031-1.8509-33.317-1.8509-33.317l-6.7867-45.656z"/>
  <path d="m406.38 565.84c-33.909 27.52-71.711 71.082-71.711 71.082l13.427 60.062s22.954-9.0079 28.973-21.797c6.0186-12.79 1.1264-18.642 1.1264-18.642s66.589-19.608 79.441-35.941c23.115-29.375-4.4277-92.77-51.257-54.764z"/>
  <path d="m81.093 566.85c-40.396-3.7337-55.291 36.238-40.53 61.91l53.224 48.6c0 15.781 20.743 53.179 28.15 34.963 1.6631-4.0906 6.4659 3.4 13.891-1.226 11.913-7.4216-5.1197-16.3-16.08-38.713 31.454 38.802 33.868 23.226 35.08 17.632 2.5406-11.72-17.28-12.754-18.335-33.244l10.838-13.165c-5.3346-18.872-18.988-18.331-32.099-19.059 0 0-19.899-56.393-34.139-57.698z"/>
  <path d="m342.44 625.33c-80.276 17.944-134.24 13.546-221.53-8.7909-4.9886 40.166-8.4078 89.608-12.386 129.86 0.080704 13.407 3.8954 26.93 12.264 37.476-16.865 15.767-13.888 41.184-12.378 62.193 1.1976 12.812 5.262 27.741-3.7908 38.714-10.957 21.253-29.231 37.728-42.445 57.261 5.6672 5.5783 11.952 10.641 16.948 16.758 3.3963 2.7634 6.0255-3.547 9.6172-3.5998 20.626-11 43.783-18.469 62.174-33.076 6.3126-8.5063 8.9204-21.694 14.709-30.617-10.474-12.295-15.254-23.893-9.2632-40.336 5.1596-15.426 20.896-26.254 21.061-43.532 1.6131-9.2299-1.693-19.337 1.2568-28.069 17.093-14.687 25.638-36.612 36.486-55.795 9.1854-10.885 28.626-12.473 37.286-0.11426 14.916 17.53 19.256 40.84 27.05 61.89 0.33289 4.8248 6.7442 11.852 0.60001 14.242-7.8933 6.5307-0.4588 35.635 4.5672 42.54 9.3092 17.561 14.56 18.707 6.9014 38.22-1.3235 7.0676-4.0072 22.06 3.9511 27.701 11.513 15.08 18.655 26.516 30.168 41.596l47.949 10.207c-0.44186-12.956 5.3522-28.382-4.9174-38.756-12.608-17.446-25.208-34.897-37.814-52.344 8.731-31.768 11.963-65.463 25.746-95.48 7.1393-23.064 3.5733-47.808 2.4009-71.512-5.3681-25.605-10.446-51.274-16.036-76.83l-0.5713 0.1904z"/>
  <path d="m128.16 281.1s16.344-33.867 30.021-59.348c13.677-25.482 23.61-33.976 23.61-33.976-2.7109-7.3522 2.7894-21.273 7.4862-34.552-0.57535-14.012 2.9254-25.987 5.1827-38.582 0 0-12.071-16.874-16.124-47.796-2.9942-22.843-9.0769-48.029 17.852-66.8 22.211-0.95846 33.221 12.338 38.582 32.824l51.827 82.348 38.007 86.955s13.245 18.428 17.276 27.641c4.0311 9.2137-1.1517 9.2137-1.1517 9.2137s19.754 26.023 28.104 44.019c8.3499 17.996 7.0703 27.71 7.0703 27.71-10.509-12.23-21.085-31.369-40.012-25.36-2.0359-20.21-24.593-32.2-38.927-46.945-9.0544-14.592-22.45-26.471-43.765-33.4-10.915-6.8118-22.115-10.498-34.552-0.57585-24.951 14.885-29.175 29.543-39.734 41.462-16.503 18.628-20.712 18.275-33.4 27.065-12.688 8.7906-17.352 8.0969-17.352 8.0969z"/>
  <path d="m95.678 889.26c18.12-7.1458 34.873-5.6229 45.396 38.233 8.1148-12.573 25.012-25.391 21.346-39.928 0 0 8.9884 9.1515 4.7626 17.912-8.5528 17.731-14.122 20.764-42.187 53.348-17.936 20.825-43.73 19.919-59.367 10.307-8.3281-5.067-9.528-15.966-5.7718-30.92 3.7404-12.076 12.426-28.14 35.822-48.952z"/>
  <path d="m294.31 874.68s-4.5947 5.9286-7.0964 14.423c-2.5017 8.4942-2.3272 16.058-2.3272 16.058 11.644 17.419 22.157 36.82 36.071 50.267 0 0 13.27 12.307 28.624 13.73 11.553 1.0709 29.953-2.7302 33.744-9.5414 3.6821-6.6159 2.2561-15.267-0.69812-24.901-5.366-17.499-32.58-40.726-32.58-40.726-4.129-8.6122-7.8144-8.9602-12.216-12.458-11.524 4.1429-22.63 12.803-31.069 28.05-9.3087-12.412-13.693-23.111-12.452-34.902z"/>
 </g>
</svg>
